<svg width="35" height="35" viewBox="0 0 35 35" fill="none" xmlns="http://www.w3.org/2000/svg">
<rect width="35" height="35" rx="17.5" fill="#00B9B6"/>
<path d="M12.3801 24.5L12.3801 22.2841L17.5577 17.4901C17.998 17.0639 18.3674 16.6804 18.6657 16.3395C18.9687 15.9986 19.1983 15.6648 19.3546 15.3381C19.5108 15.0066 19.589 14.6491 19.589 14.2656C19.589 13.8395 19.4919 13.4725 19.2978 13.1648C19.1036 12.8523 18.8385 12.6132 18.5023 12.4474C18.1661 12.277 17.785 12.1918 17.3588 12.1918C16.9138 12.1918 16.5255 12.2817 16.1941 12.4616C15.8626 12.6416 15.6069 12.8996 15.427 13.2358C15.2471 13.572 15.1571 13.9721 15.1571 14.4361L12.2381 14.4361C12.2381 13.4844 12.4535 12.6581 12.8844 11.9574C13.3153 11.2566 13.919 10.7145 14.6955 10.331C15.472 9.94744 16.3669 9.75568 17.3801 9.75568C18.4218 9.75568 19.3285 9.94034 20.1003 10.3097C20.8768 10.6742 21.4805 11.1809 21.9114 11.8295C22.3423 12.4782 22.5577 13.2216 22.5577 14.0597C22.5577 14.6089 22.4488 15.151 22.231 15.6861C22.0179 16.2211 21.6368 16.8153 21.0875 17.4687C20.5383 18.1174 19.7641 18.8963 18.7651 19.8054L16.6415 21.8864L16.6415 21.9858L22.7495 21.9858L22.7495 24.5L12.3801 24.5Z" fill="white"/>
</svg>
