<svg width="35" height="36" viewBox="0 0 35 36" fill="none" xmlns="http://www.w3.org/2000/svg">
<rect y="0.5" width="35" height="35" rx="17.5" fill="#00B9B6" fill-opacity="0.1"/>
<path d="M17.4636 25.1989C16.403 25.1989 15.4584 25.0166 14.6298 24.652C13.8059 24.2827 13.1549 23.776 12.6767 23.1321C12.2032 22.4834 11.9593 21.7353 11.9451 20.8878L15.0417 20.8878C15.0607 21.2429 15.1767 21.5554 15.3897 21.8253C15.6075 22.0904 15.8964 22.2964 16.2562 22.4432C16.6161 22.59 17.0209 22.6634 17.4707 22.6634C17.9395 22.6634 18.3538 22.5805 18.7136 22.4148C19.0734 22.2491 19.3552 22.0194 19.5588 21.7259C19.7624 21.4323 19.8642 21.0937 19.8642 20.7102C19.8642 20.322 19.7553 19.9787 19.5375 19.6804C19.3244 19.3774 19.0166 19.1406 18.6142 18.9702C18.2164 18.7997 17.743 18.7145 17.1937 18.7145L15.8372 18.7145L15.8372 16.456L17.1937 16.456C17.6577 16.456 18.0673 16.3755 18.4224 16.2145C18.7823 16.0535 19.0616 15.831 19.2605 15.5469C19.4593 15.258 19.5588 14.9219 19.5588 14.5384C19.5588 14.1738 19.4712 13.8542 19.296 13.5795C19.1255 13.3002 18.8841 13.0824 18.5716 12.9261C18.2638 12.7699 17.9039 12.6918 17.492 12.6918C17.0753 12.6918 16.6942 12.7675 16.3485 12.919C16.0029 13.0658 15.7259 13.2765 15.5176 13.5511C15.3092 13.8258 15.198 14.1477 15.1838 14.517L12.2363 14.517C12.2505 13.679 12.4896 12.9403 12.9537 12.3011C13.4177 11.6619 14.0427 11.1624 14.8287 10.8026C15.6194 10.438 16.5119 10.2557 17.5062 10.2557C18.51 10.2557 19.3883 10.438 20.1412 10.8026C20.894 11.1671 21.4788 11.6596 21.8954 12.2798C22.3168 12.8954 22.5252 13.5866 22.5204 14.3537C22.5252 15.1681 22.2718 15.8475 21.7605 16.392C21.2538 16.9366 20.5933 17.2822 19.7789 17.429L19.7789 17.5426C20.849 17.6799 21.6634 18.0516 22.2221 18.6577C22.7856 19.259 23.0649 20.0118 23.0602 20.9162C23.0649 21.7448 22.8258 22.4811 22.3429 23.125C21.8646 23.7689 21.2041 24.2756 20.3613 24.6449C19.5185 25.0142 18.5526 25.1989 17.4636 25.1989Z" fill="#00B9B6"/>
</svg>
